<svg xmlns="http://www.w3.org/2000/svg" version="1.1" xmlns:xlink="http://www.w3.org/1999/xlink" width="200" height="200"><svg xmlns="http://www.w3.org/2000/svg" version="1.1" xmlns:xlink="http://www.w3.org/1999/xlink" viewBox="0 0 200 200"><rect width="200" height="200" fill="url('#gradient')"></rect><defs><linearGradient id="SvgjsLinearGradient1011" gradientTransform="rotate(45 0.5 0.5)"><stop offset="0%" stop-color="#b0bea6"></stop><stop offset="100%" stop-color="#cdb891"></stop></linearGradient></defs><g><g fill="#2c3448" transform="matrix(3.1653786707882534,0,0,3.1653786707882534,6.60366742375092,123.42614508780667)" stroke="#27354b" stroke-width="0.2"><path d="M12.96-14.22L12.96 0L9.55 0L9.55-5.94L4.50-5.94L4.50 0L1.07 0L1.07-14.22L4.50-14.22L4.50-8.57L9.55-8.57L9.55-14.22L12.96-14.22ZM24.22 0L20.93 0Q20.75-0.32 20.62-0.95L20.62-0.95Q19.71 0.20 18.08 0.20L18.08 0.20Q16.58 0.20 15.54-0.71Q14.49-1.61 14.49-2.98L14.49-2.98Q14.49-4.70 15.76-5.58Q17.03-6.46 19.45-6.46L19.45-6.46L20.47-6.46L20.47-7.01Q20.47-8.47 19.21-8.47L19.21-8.47Q18.04-8.47 18.04-7.31L18.04-7.31L14.75-7.31Q14.75-8.85 16.05-9.80Q17.35-10.76 19.38-10.76Q21.40-10.76 22.57-9.78Q23.74-8.79 23.77-7.07L23.77-7.07L23.77-2.39Q23.79-0.94 24.22-0.17L24.22-0.17L24.22 0ZM18.87-2.15L18.87-2.15Q19.48-2.15 19.89-2.41Q20.29-2.68 20.47-3.01L20.47-3.01L20.47-4.70L19.51-4.70Q17.79-4.70 17.79-3.15L17.79-3.15Q17.79-2.71 18.10-2.43Q18.40-2.15 18.87-2.15ZM35.40-5.36L35.40-5.20Q35.40-2.60 34.33-1.20Q33.25 0.20 31.30 0.20L31.30 0.20Q29.69 0.20 28.70-1.08L28.70-1.08L28.56 0L25.62 0L25.62-15L28.91-15L28.91-9.72Q29.82-10.76 31.28-10.76L31.28-10.76Q33.25-10.76 34.33-9.35Q35.40-7.93 35.40-5.36L35.40-5.36ZM32.10-5.40L32.10-5.40Q32.10-6.92 31.69-7.57Q31.29-8.22 30.45-8.22L30.45-8.22Q29.34-8.22 28.91-7.37L28.91-7.37L28.91-3.17Q29.33-2.33 30.47-2.33L30.47-2.33Q31.63-2.33 31.94-3.47L31.94-3.47Q32.10-4.02 32.10-5.40ZM40.32-10.57L40.32 0L37.02 0L37.02-10.57L40.32-10.57ZM36.83-13.29L36.83-13.29Q36.83-13.99 37.33-14.44Q37.84-14.89 38.65-14.89Q39.46-14.89 39.97-14.44Q40.48-13.99 40.48-13.29Q40.48-12.59 39.97-12.14Q39.46-11.69 38.65-11.69Q37.84-11.69 37.33-12.14Q36.83-12.59 36.83-13.29ZM42.89-13.19L46.18-13.19L46.18-10.57L47.92-10.57L47.92-8.28L46.18-8.28L46.18-3.45Q46.18-2.85 46.40-2.62Q46.61-2.38 47.25-2.38L47.25-2.38Q47.73-2.38 48.07-2.44L48.07-2.44L48.07-0.09Q47.18 0.20 46.21 0.20L46.21 0.20Q44.51 0.20 43.70-0.61Q42.89-1.41 42.89-3.04L42.89-3.04L42.89-8.28L41.54-8.28L41.54-10.57L42.89-10.57L42.89-13.19ZM54.75-2.97L54.75-2.97Q54.75-3.39 54.31-3.64Q53.87-3.90 52.64-4.17Q51.41-4.44 50.61-4.89Q49.80-5.33 49.38-5.97Q48.96-6.60 48.96-7.42L48.96-7.42Q48.96-8.88 50.17-9.82Q51.37-10.76 53.31-10.76L53.31-10.76Q55.40-10.76 56.67-9.81Q57.94-8.87 57.94-7.32L57.94-7.32L54.64-7.32Q54.64-8.59 53.30-8.59L53.30-8.59Q52.78-8.59 52.43-8.31Q52.08-8.02 52.08-7.59L52.08-7.59Q52.08-7.15 52.51-6.88Q52.94-6.60 53.88-6.43Q54.82-6.25 55.54-6.01L55.54-6.01Q57.92-5.19 57.92-3.07L57.92-3.07Q57.92-1.62 56.64-0.71Q55.35 0.20 53.31 0.20L53.31 0.20Q51.95 0.20 50.89-0.29Q49.82-0.78 49.23-1.62Q48.63-2.46 48.63-3.39L48.63-3.39L51.71-3.39Q51.73-2.66 52.20-2.32Q52.67-1.98 53.40-1.98L53.40-1.98Q54.07-1.98 54.41-2.26Q54.75-2.53 54.75-2.97Z"></path></g></g></svg><style>@media (prefers-color-scheme: light) { :root { filter: none; } }
@media (prefers-color-scheme: dark) { :root { filter: none; } }
</style></svg>